<svg width="40" height="40" viewBox="0 0 40 40" fill="none" xmlns="http://www.w3.org/2000/svg">
<path d="M6.25 0C4.5924 0 3.00269 0.65848 1.83058 1.83058C0.65848 3.00269 0 4.5924 0 6.25L0 23.75C0 24.5708 0.161661 25.3835 0.475753 26.1418C0.789845 26.9001 1.25022 27.5891 1.83058 28.1694C3.00269 29.3415 4.5924 30 6.25 30H15.055C14.8713 27.9915 15.1318 25.9671 15.8179 24.0705C16.504 22.1738 17.599 20.4513 19.0252 19.0252C20.4513 17.599 22.1738 16.504 24.0705 15.8179C25.9671 15.1318 27.9915 14.8713 30 15.055V6.25C30 5.42924 29.8383 4.61651 29.5242 3.85823C29.2102 3.09994 28.7498 2.41095 28.1694 1.83058C27.5891 1.25022 26.9001 0.789845 26.1418 0.475753C25.3835 0.161661 24.5708 0 23.75 0L6.25 0ZM22.135 12.135L13.385 20.885C13.2689 21.0014 13.1309 21.0938 12.9791 21.1568C12.8272 21.2198 12.6644 21.2522 12.5 21.2522C12.3356 21.2522 12.1728 21.2198 12.0209 21.1568C11.8691 21.0938 11.7311 21.0014 11.615 20.885L7.865 17.135C7.74878 17.0188 7.65659 16.8808 7.59369 16.729C7.53079 16.5771 7.49842 16.4144 7.49842 16.25C7.49842 16.0856 7.53079 15.9229 7.59369 15.771C7.65659 15.6192 7.74878 15.4812 7.865 15.365C7.98122 15.2488 8.11919 15.1566 8.27104 15.0937C8.42289 15.0308 8.58564 14.9984 8.75 14.9984C8.91436 14.9984 9.07711 15.0308 9.22896 15.0937C9.38081 15.1566 9.51878 15.2488 9.635 15.365L12.5 18.2325L20.365 10.365C20.4812 10.2488 20.6192 10.1566 20.771 10.0937C20.9229 10.0308 21.0856 9.99842 21.25 9.99842C21.4144 9.99842 21.5771 10.0308 21.729 10.0937C21.8808 10.1566 22.0188 10.2488 22.135 10.365C22.2512 10.4812 22.3434 10.6192 22.4063 10.771C22.4692 10.9229 22.5016 11.0856 22.5016 11.25C22.5016 11.4144 22.4692 11.5771 22.4063 11.729C22.3434 11.8808 22.2512 12.0188 22.135 12.135ZM17.5 28.75C17.5 31.7337 18.6853 34.5952 20.795 36.7049C22.9048 38.8147 25.7663 40 28.75 40C31.7337 40 34.5952 38.8147 36.7049 36.7049C38.8147 34.5952 40 31.7337 40 28.75C40 25.7663 38.8147 22.9048 36.7049 20.795C34.5952 18.6853 31.7337 17.5 28.75 17.5C25.7663 17.5 22.9048 18.6853 20.795 20.795C18.6853 22.9048 17.5 25.7663 17.5 28.75ZM33.75 21.25C34.0815 21.25 34.3995 21.3817 34.6339 21.6161C34.8683 21.8505 35 22.1685 35 22.5V26.25C35 26.5815 34.8683 26.8995 34.6339 27.1339C34.3995 27.3683 34.0815 27.5 33.75 27.5H30C29.6685 27.5 29.3505 27.3683 29.1161 27.1339C28.8817 26.8995 28.75 26.5815 28.75 26.25C28.75 25.9185 28.8817 25.6005 29.1161 25.3661C29.3505 25.1317 29.6685 25 30 25H31.17C30.4559 24.6025 29.6546 24.3878 28.8375 24.375C28.1658 24.3632 27.4987 24.4868 26.8759 24.7385C26.253 24.9902 25.6873 25.3648 25.2125 25.84C24.975 26.0583 24.6623 26.1763 24.3399 26.1694C24.0174 26.1625 23.71 26.0312 23.4821 25.8029C23.2542 25.5747 23.1233 25.2672 23.1169 24.9447C23.1104 24.6222 23.2289 24.3097 23.4475 24.0725C24.6148 22.9051 26.1347 22.1556 27.7714 21.9399C29.4081 21.7243 31.0702 22.0548 32.5 22.88V22.5C32.5 22.1685 32.6317 21.8505 32.8661 21.6161C33.1005 21.3817 33.4185 21.25 33.75 21.25ZM31.56 35.08C30.5035 35.5069 29.3636 35.6873 28.2269 35.6076C27.0902 35.5279 25.9866 35.1901 25 34.62V35C25 35.3315 24.8683 35.6495 24.6339 35.8839C24.3995 36.1183 24.0815 36.25 23.75 36.25C23.4185 36.25 23.1005 36.1183 22.8661 35.8839C22.6317 35.6495 22.5 35.3315 22.5 35V31.25C22.5 30.9185 22.6317 30.6005 22.8661 30.3661C23.1005 30.1317 23.4185 30 23.75 30H27.5C27.8315 30 28.1495 30.1317 28.3839 30.3661C28.6183 30.6005 28.75 30.9185 28.75 31.25C28.75 31.5815 28.6183 31.8995 28.3839 32.1339C28.1495 32.3683 27.8315 32.5 27.5 32.5H26.33C27.2795 33.026 28.3745 33.2285 29.4493 33.0769C30.5242 32.9254 31.5204 32.428 32.2875 31.66C32.525 31.4417 32.8377 31.3237 33.1601 31.3306C33.4826 31.3375 33.79 31.4688 34.0179 31.6971C34.2458 31.9253 34.3767 32.2328 34.3831 32.5553C34.3896 32.8778 34.2711 33.1903 34.0525 33.4275C33.34 34.14 32.4925 34.7025 31.56 35.0775V35.08Z" fill="#3A7FA3"/>
</svg>
