<svg width="27" height="30" viewBox="0 0 27 30" fill="none" xmlns="http://www.w3.org/2000/svg">
<path d="M17.6995 26.2529C17.4825 27.311 16.9069 28.2617 16.0699 28.9444C15.233 29.6271 14.186 30 13.1059 30C12.0258 30 10.9788 29.6271 10.1419 28.9444C9.30491 28.2617 8.7293 27.311 8.51229 26.2529H17.6995ZM13.1021 0C15.1458 0 17.0639 0.524983 18.7176 1.4437C17.7483 2.31362 17.1108 3.49296 16.9141 4.78046C16.7174 6.06797 16.9736 7.38384 17.639 8.50349C18.3044 9.62315 19.3377 10.4772 20.5626 10.9199C21.7875 11.3626 23.1281 11.3665 24.3555 10.9309V17.6413L26.1424 22.4918L26.1911 22.6512L26.2192 22.8124L26.2286 22.9793C26.2286 23.5699 25.863 24.0855 25.2499 24.3049L25.038 24.3667L24.8224 24.3855H1.39127C1.22484 24.3852 1.05978 24.3553 0.903782 24.2974C0.365675 24.1005 0.0131856 23.5999 6.10352e-05 22.9549L0.0075607 22.7355L0.071309 22.4918L1.85438 17.6469L1.85625 10.8615L1.86563 10.4397C2.09437 4.59548 7.04984 0 13.1021 0ZM22.4806 9.3747C23.4751 9.3747 24.4289 8.97963 25.1322 8.27639C25.8354 7.57315 26.2305 6.61935 26.2305 5.62482C26.2305 4.63029 25.8354 3.67649 25.1322 2.97326C24.4289 2.27002 23.4751 1.87494 22.4806 1.87494C21.4861 1.87494 20.5323 2.27002 19.829 2.97326C19.1258 3.67649 18.7307 4.63029 18.7307 5.62482C18.7307 6.61935 19.1258 7.57315 19.829 8.27639C20.5323 8.97963 21.4861 9.3747 22.4806 9.3747Z" fill="#3A7FA3"/>
</svg>
