<svg width="40" height="40" viewBox="0 0 40 40" fill="none" xmlns="http://www.w3.org/2000/svg">
<path d="M36.9773 8.59091H30.5V6.32386C30.5 6.14574 30.3543 6 30.1761 6H27.9091C27.731 6 27.5852 6.14574 27.5852 6.32386V8.59091H21.5938V6.32386C21.5938 6.14574 21.448 6 21.2699 6H19.0028C18.8247 6 18.679 6.14574 18.679 6.32386V8.59091H12.6875V6.32386C12.6875 6.14574 12.5418 6 12.3636 6H10.0966C9.91847 6 9.77273 6.14574 9.77273 6.32386V8.59091H3.29545C2.57891 8.59091 2 9.16982 2 9.88636V33.2045C2 33.9211 2.57891 34.5 3.29545 34.5H36.9773C37.6938 34.5 38.2727 33.9211 38.2727 33.2045V9.88636C38.2727 9.16982 37.6938 8.59091 36.9773 8.59091ZM16.5739 27.375C16.5739 27.5531 16.4281 27.6989 16.25 27.6989H8.80114C8.62301 27.6989 8.47727 27.5531 8.47727 27.375V25.4318C8.47727 25.2537 8.62301 25.108 8.80114 25.108H16.25C16.4281 25.108 16.5739 25.2537 16.5739 25.4318V27.375ZM16.5739 21.8693C16.5739 22.0474 16.4281 22.1932 16.25 22.1932H8.80114C8.62301 22.1932 8.47727 22.0474 8.47727 21.8693V19.9261C8.47727 19.748 8.62301 19.6023 8.80114 19.6023H16.25C16.4281 19.6023 16.5739 19.748 16.5739 19.9261V21.8693ZM31.7347 18.1732L25.055 27.4317C24.9954 27.5144 24.917 27.5818 24.8262 27.6283C24.7354 27.6748 24.6348 27.6991 24.5328 27.6991C24.4308 27.6991 24.3303 27.6748 24.2395 27.6283C24.1487 27.5818 24.0702 27.5144 24.0106 27.4317L19.3874 21.0273C19.2336 20.8127 19.3874 20.5131 19.6506 20.5131H21.8731C22.0795 20.5131 22.2739 20.6143 22.3953 20.7803L24.5328 23.7396L28.7309 17.9222C28.8523 17.7522 29.0467 17.655 29.2531 17.655H31.4716C31.7347 17.6591 31.8886 17.9587 31.7347 18.1732Z" fill="#3A7FA3"/>
</svg>
