<svg width="29" height="32" viewBox="0 0 29 32" fill="none" xmlns="http://www.w3.org/2000/svg">
<path d="M4.6755 3.11688V9.35088H23.3775V3.11688H26.5054C27.3595 3.11688 28.053 3.81041 28.053 4.66447V29.6223C28.0526 30.0326 27.8894 30.426 27.5993 30.7161C27.3091 31.0063 26.9157 31.1695 26.5054 31.1699H1.54759C1.13727 31.1695 0.743874 31.0063 0.453734 30.7161C0.163594 30.426 0.000412589 30.0326 0 29.6223V4.66447C0 3.81041 0.693533 3.11688 1.54759 3.11688H4.6755ZM9.351 23.3774H6.234V26.4944H9.351V23.3774ZM9.351 18.7019H6.234V21.8189H9.351V18.7019ZM9.351 14.0264H6.234V17.1434H9.351V14.0264ZM20.2605 -0.00012207V6.23388H7.7925V-0.00012207H20.2605Z" fill="#3A7FA3"/>
</svg>
