<svg width="36" height="31" viewBox="0 0 36 31" fill="none" xmlns="http://www.w3.org/2000/svg">
<path d="M17.0007 25.6667C16.9997 23.6984 17.4972 21.7618 18.4466 20.0376C19.3961 18.3134 20.7666 16.8576 22.4305 15.806C24.0945 14.7544 25.9975 14.1413 27.9624 14.0237C29.9272 13.906 31.8898 14.2878 33.6673 15.1334V4.00008C33.6673 2.16675 32.1673 0.666748 30.334 0.666748H3.66732C1.83398 0.666748 0.333984 2.16675 0.333984 4.00008V24.0001C0.333984 25.8334 1.83398 27.3334 3.66732 27.3334H17.134C17.0506 26.7834 17.0007 26.2334 17.0007 25.6667ZM3.66732 4.00008L17.0007 12.3334L30.334 4.00008V7.33341L17.0007 15.6667L3.66732 7.33341V4.00008ZM25.9007 30.6667L20.0007 24.7667L22.3507 22.4167L25.884 25.9501L32.9506 18.8834L35.334 21.2334L25.9007 30.6667Z" fill="#3A7FA3"/>
</svg>
