<svg width="32" height="32" viewBox="0 0 32 32" fill="none" xmlns="http://www.w3.org/2000/svg">
<path d="M26.5083 0H5.30167C2.37356 0 0 2.37356 0 5.30167V26.5083C0 29.4364 2.37356 31.81 5.30167 31.81H26.5083C29.4364 31.81 31.81 29.4364 31.81 26.5083V5.30167C31.81 2.37356 29.4364 0 26.5083 0ZM10.0732 19.6162H8.71965L6.02428 14.7752V19.6162H4.7715V12.1938H6.08472L8.82038 17.1498V12.1938H10.0732V19.6162ZM17.4955 19.6162H12.1938V12.1938H17.363V13.4487H13.6009V15.0944H17.1V16.345H13.6009V18.3639H17.4955V19.6162ZM26.3323 19.6162H24.7747L23.3279 14.0669L21.8848 19.6162H20.2921L18.5558 12.1938H20.0594L21.1558 17.2914L22.4844 12.1938H24.2302L25.5047 17.3783L26.6213 12.1938H28.0988L26.3323 19.6162Z" fill="#3A7FA3"/>
</svg>
